# xmcd CD database file
#
# Track frame offsets:
#	150
#	15934
#	29663
#	45604
#	63019
#	77933
#	94192
#	112538
#	124464
#	137227
#	151774
#	179088
#
# Disc length: 2608 seconds
#
# Revision: 0
# Processed by: cddbd v1.4PL0 Copyright (c) Steve Scherf et al.
# Submitted via: CDex 1.51
#
DISCID=960a2e0c
DTITLE=Rudi - In My Own Style
DYEAR=1999
DGENRE=Blues
TTITLE0=You Ain't Going Nowhere
TTITLE1=To Find A Friend
TTITLE2=If I Were A Carpenter
TTITLE3=Streets Of London
TTITLE4=Far Far Away
TTITLE5=Under The Volcano
TTITLE6=Nothing Ever Happens
TTITLE7=Singing The Blues
TTITLE8=The Lord Of The Dance
TTITLE9=Leg Nicht Auf
TTITLE10=Piano Man
TTITLE11=Sleep Little Girl
EXTD=YEAR: 1999
EXTT0=
EXTT1=
EXTT2=
EXTT3=
EXTT4=
EXTT5=
EXTT6=
EXTT7=
EXTT8=
EXTT9=
EXTT10=
EXTT11=
PLAYORDER=
